<svg width="380" height="380" viewBox="0 0 380 380" fill="none" xmlns="http://www.w3.org/2000/svg">
<path d="M312.658 45.0519C287.426 23.6622 256.532 8.76519 222.536 2.88574L290.565 65.3414L312.658 45.0519Z" fill="white"/>
<path d="M193.535 152.126L210.037 136.977C211.823 135.335 214.546 135.335 216.313 136.977L274.044 189.982H260.301L213.175 146.716L193.535 164.751V152.126ZM283.332 227.603C256.892 244.232 233.555 249.804 214.167 249.804C206.683 249.804 199.793 248.957 193.535 247.622V238.442C214.059 243.276 242.897 242.049 278.39 219.722C316.39 195.807 352.352 194.815 379.603 200.262C379.784 196.853 379.892 193.427 379.892 189.964C379.892 177.88 378.72 166.085 376.555 154.633L367.899 146.698L320.773 189.964H307.03L364.761 136.959C366.546 135.318 369.269 135.318 371.037 136.959L372.786 138.564C369.684 127.508 365.644 116.868 360.685 106.714L293.684 168.232C291.899 169.873 289.175 169.873 287.39 168.232L213.175 100.095L193.535 118.13V105.505L210.037 90.3559C211.823 88.7147 214.546 88.7147 216.313 90.3559L290.528 158.493L356.23 98.1652C352.118 90.7347 347.537 83.5927 342.487 76.8115L293.666 121.629C291.881 123.27 289.157 123.27 287.372 121.629L213.157 53.4921L193.517 71.5273V58.9027L210.019 43.7531C211.805 42.1119 214.528 42.1119 216.295 43.7531L290.51 111.89L336.734 69.4532C331.432 62.9966 325.678 56.9188 319.582 51.2197L293.648 75.0261C291.862 76.6673 289.139 76.6673 287.354 75.0261L213.139 6.88943L193.499 24.9246V12.3L206.105 0.739392C200.767 0.288514 195.375 0 189.91 0C163.615 0 138.546 5.35635 115.786 15.0232H186.339V25.141H95.5321C78.6693 34.8078 63.4477 46.9815 50.3542 61.1571H186.339V71.2928H41.6612C32.7879 82.3664 25.123 94.4139 18.8648 107.309H186.339V117.445H14.356C9.61276 128.933 5.96967 140.981 3.53492 153.461H186.339V163.597H1.85767C0.649317 172.217 0 181.018 0 189.964C0 243.925 22.544 292.584 58.6683 327.175C55.3499 317.436 49.3442 307.445 40.543 297.291C-0.180276 250.273 22.0209 207.224 34.3209 189.982H46.0257C38.5411 198.422 4.6712 241.671 47.5587 291.213C61.1392 306.904 68.7861 322.486 70.5716 337.708C79.0481 344.561 88.1196 350.711 97.7143 356.031C98.2193 354.084 98.598 352.046 98.8325 349.917C100.726 333.235 93.6925 315.543 77.8937 297.309C37.1884 250.291 59.3717 207.242 71.6717 190H83.3765C75.8919 198.44 42.0399 241.689 84.9094 291.231C102.512 311.557 110.285 331.702 108.031 351.126C107.652 354.444 106.948 357.528 106.083 360.468C113.495 364.129 121.214 367.285 129.132 369.972C132.414 364.58 135.282 357.871 136.183 349.954C138.077 333.271 131.043 315.579 115.245 297.345C74.5213 250.328 96.7224 207.278 109.022 190.036H120.727C113.243 198.477 79.3726 241.725 122.26 291.267C139.862 311.593 147.636 331.738 145.381 351.162C144.389 359.62 141.594 366.852 138.257 372.822C145.616 374.896 153.136 376.591 160.819 377.764C165.959 371.794 172.109 362.344 173.534 349.972C175.428 333.289 168.394 315.597 152.613 297.363C111.89 250.346 134.091 207.296 146.391 190.054H158.096C150.611 198.495 116.742 241.743 159.629 291.285C177.231 311.611 185.004 331.774 182.75 351.18C181.379 362.885 176.582 372.245 171.64 379.116C177.646 379.693 183.724 380 189.892 380C245.927 380 296.281 355.725 331.053 317.13C316.03 319.889 299.924 325.66 283.296 336.139C256.856 352.767 233.519 358.34 214.131 358.34C206.647 358.34 199.757 357.492 193.499 356.158V346.996C214.023 351.829 242.861 350.603 278.354 328.275C299.87 314.749 320.737 308.563 339.746 306.723C346.509 298.049 352.533 288.796 357.727 279.021C335.94 278.21 310.312 282.989 283.296 299.978C256.856 316.607 233.519 322.197 214.131 322.197C206.647 322.197 199.757 321.35 193.499 320.015V310.853C214.023 315.687 242.861 314.46 278.354 292.133C308.689 273.052 337.726 268.597 362.073 270.328C365.987 261.942 369.305 253.231 371.975 244.232C347.537 240.498 316.462 242.987 283.296 263.854C256.856 280.482 233.519 286.055 214.131 286.055C206.647 286.055 199.757 285.207 193.499 283.873V274.711C214.023 279.544 242.861 278.318 278.354 255.991C313.974 233.591 347.789 231.319 374.319 235.593C376.411 227.044 377.98 218.297 378.882 209.334C353.543 204.049 319.691 204.807 283.314 227.693" fill="white"/>
</svg>
