<svg width="377" height="380" viewBox="0 0 377 380" fill="none" xmlns="http://www.w3.org/2000/svg">
<g clip-path="url(#clip0_299_1417)">
<mask id="path-1-outside-1_299_1417" maskUnits="userSpaceOnUse" x="-1" y="0.430664" width="379" height="379" fill="black">
<rect fill="white" x="-1" y="0.430664" width="379" height="379"/>
<path d="M310.188 46.127C285.156 24.9062 254.506 10.1268 220.778 4.29375L288.269 66.2563L310.188 46.127Z"/>
<path d="M192.007 152.356L208.379 137.326C210.15 135.698 212.852 135.698 214.606 137.326L271.88 189.913H258.246L211.492 146.988L192.007 164.881V152.356ZM281.095 227.237C254.864 243.734 231.711 249.263 212.476 249.263C205.051 249.263 198.216 248.422 192.007 247.098V237.991C212.369 242.786 240.98 241.569 276.193 219.418C313.893 195.692 349.571 194.708 376.607 200.112C376.786 196.73 376.893 193.33 376.893 189.895C376.893 177.907 375.73 166.205 373.583 154.843L364.994 146.97L318.24 189.895H304.606L361.881 137.308C363.652 135.68 366.354 135.68 368.108 137.308L369.843 138.901C366.766 127.932 362.758 117.376 357.837 107.302L291.366 168.334C289.594 169.962 286.892 169.962 285.121 168.334L211.492 100.735L192.007 118.628V106.103L208.379 91.0733C210.15 89.445 212.852 89.445 214.606 91.0733L288.234 158.672L353.418 98.8208C349.338 91.449 344.793 84.3635 339.783 77.6358L291.348 122.099C289.576 123.728 286.874 123.728 285.103 122.099L211.474 54.5005L191.989 72.3932V59.8683L208.361 44.8384C210.132 43.2101 212.834 43.2101 214.588 44.8384L288.216 112.437L334.076 70.3355C328.815 63.9299 323.107 57.9001 317.059 52.246L291.33 75.8644C289.558 77.4927 286.857 77.4927 285.085 75.8644L211.456 8.2657L191.971 26.1584V13.6335L204.478 2.16422C199.182 1.7169 193.832 1.43066 188.411 1.43066C162.323 1.43066 137.452 6.74473 114.871 16.3352H184.868V26.3731H94.7779C78.0482 35.9637 62.9468 48.0412 49.9566 62.1049H184.868V72.1606H41.3323C32.5291 83.1468 24.9246 95.0992 18.7159 107.892H184.868V117.948H14.2427C9.53687 129.346 5.92254 141.298 3.50702 153.68H184.868V163.736H1.84301C0.644191 172.288 0 181.02 0 189.895C0 243.43 22.366 291.705 58.2052 326.023C54.9129 316.361 48.9546 306.448 40.223 296.375C-0.178853 249.728 21.8471 207.018 34.0499 189.913H45.6623C38.2368 198.287 4.63432 241.193 47.1833 290.345C60.6565 305.911 68.243 321.371 70.0144 336.472C78.424 343.272 87.424 349.373 96.9429 354.651C97.4439 352.719 97.8196 350.697 98.0522 348.586C99.931 332.035 92.9528 314.482 77.2788 296.392C36.8949 249.746 58.903 207.036 71.1059 189.931H82.7182C75.2928 198.304 41.708 241.211 84.2391 290.363C101.702 310.528 109.414 330.514 107.178 349.784C106.802 353.077 106.104 356.136 105.245 359.053C112.599 362.685 120.257 365.816 128.112 368.482C131.369 363.132 134.214 356.476 135.108 348.621C136.987 332.071 130.009 314.518 114.335 296.428C73.933 249.782 95.9588 207.072 108.162 189.966H119.774C112.349 198.34 78.7459 241.247 121.295 290.398C138.758 310.564 146.47 330.55 144.234 349.82C143.249 358.212 140.476 365.387 137.166 371.309C144.466 373.367 151.927 375.049 159.55 376.212C164.649 370.289 170.751 360.914 172.164 348.639C174.043 332.088 167.065 314.536 151.409 296.446C111.007 249.8 133.033 207.09 145.235 189.984H156.848C149.422 198.358 115.82 241.265 158.369 290.416C175.832 310.581 183.544 330.585 181.307 349.838C179.947 361.45 175.188 370.737 170.285 377.554C176.244 378.126 182.273 378.431 188.393 378.431C243.985 378.431 293.942 354.347 328.439 316.057C313.535 318.794 297.556 324.52 281.059 334.916C254.829 351.413 231.675 356.942 212.441 356.942C205.015 356.942 198.18 356.101 191.971 354.776V345.687C212.333 350.482 240.944 349.265 276.157 327.114C297.503 313.695 318.205 307.558 337.064 305.733C343.773 297.126 349.75 287.947 354.903 278.249C333.288 277.444 307.863 282.186 281.059 299.041C254.829 315.538 231.675 321.084 212.441 321.084C205.015 321.084 198.18 320.244 191.971 318.919V309.83C212.333 314.625 240.944 313.408 276.157 291.257C306.252 272.327 335.06 267.907 359.215 269.625C363.098 261.305 366.39 252.663 369.038 243.734C344.793 240.03 313.964 242.5 281.059 263.201C254.829 279.699 231.675 285.227 212.441 285.227C205.015 285.227 198.18 284.386 191.971 283.062V273.973C212.333 278.768 240.944 277.551 276.157 255.4C311.495 233.177 345.044 230.923 371.364 235.164C373.439 226.682 374.996 218.004 375.891 209.112C350.752 203.869 317.167 204.621 281.077 227.327"/>
</mask>
<path d="M310.188 46.127L310.43 46.3904L310.728 46.1163L310.419 45.8542L310.188 46.127ZM220.778 4.29375L220.839 3.94129L219.639 3.7338L220.536 4.55723L220.778 4.29375ZM288.269 66.2563L288.027 66.5198L288.269 66.7419L288.511 66.5198L288.269 66.2563ZM192.007 152.356L191.765 152.092L191.649 152.199V152.356H192.007ZM208.379 137.326L208.621 137.589L208.621 137.589L208.379 137.326ZM214.606 137.326L214.362 137.588L214.364 137.589L214.606 137.326ZM271.88 189.913V190.27H272.799L272.122 189.649L271.88 189.913ZM258.246 189.913L258.004 190.176L258.107 190.27H258.246V189.913ZM211.492 146.988L211.734 146.725L211.492 146.502L211.25 146.725L211.492 146.988ZM192.007 164.881H191.649V165.695L192.249 165.144L192.007 164.881ZM192.007 247.098H191.649V247.387L191.932 247.448L192.007 247.098ZM192.007 237.991L192.089 237.642L191.649 237.539V237.991H192.007ZM276.193 219.418L276.383 219.721L276.383 219.721L276.193 219.418ZM376.607 200.112L376.536 200.462L376.942 200.543L376.964 200.131L376.607 200.112ZM373.583 154.843L373.934 154.777L373.912 154.66L373.824 154.579L373.583 154.843ZM364.994 146.97L365.236 146.707L364.994 146.485L364.752 146.707L364.994 146.97ZM318.24 189.895V190.253H318.38L318.482 190.158L318.24 189.895ZM304.606 189.895L304.364 189.631L303.688 190.253H304.606V189.895ZM361.881 137.308L362.123 137.572L362.123 137.571L361.881 137.308ZM368.108 137.308L367.864 137.57L367.866 137.572L368.108 137.308ZM369.843 138.901L369.601 139.164L370.527 140.013L370.187 138.804L369.843 138.901ZM357.837 107.302L358.159 107.145L357.948 106.714L357.595 107.039L357.837 107.302ZM291.366 168.334L291.124 168.071L291.123 168.071L291.366 168.334ZM285.121 168.334L285.363 168.071L285.363 168.071L285.121 168.334ZM211.492 100.735L211.734 100.472L211.492 100.25L211.25 100.472L211.492 100.735ZM192.007 118.628H191.649V119.442L192.249 118.892L192.007 118.628ZM192.007 106.103L191.765 105.84L191.649 105.946V106.103H192.007ZM208.379 91.0733L208.621 91.3368L208.621 91.3366L208.379 91.0733ZM214.606 91.0733L214.362 91.3354L214.364 91.3367L214.606 91.0733ZM288.234 158.672L287.992 158.936L288.234 159.158L288.476 158.936L288.234 158.672ZM353.418 98.8208L353.66 99.0843L353.867 98.8939L353.731 98.6476L353.418 98.8208ZM339.783 77.6358L340.07 77.4222L339.834 77.1042L339.542 77.3723L339.783 77.6358ZM291.348 122.099L291.106 121.836L291.106 121.836L291.348 122.099ZM285.103 122.099L285.345 121.836L285.345 121.836L285.103 122.099ZM211.474 54.5005L211.716 54.237L211.474 54.0149L211.232 54.237L211.474 54.5005ZM191.989 72.3932H191.631V73.2073L192.231 72.6567L191.989 72.3932ZM191.989 59.8683L191.747 59.6048L191.631 59.7111V59.8683H191.989ZM208.361 44.8384L208.603 45.1019L208.603 45.1017L208.361 44.8384ZM214.588 44.8384L214.344 45.1005L214.346 45.1018L214.588 44.8384ZM288.216 112.437L287.974 112.701L288.216 112.923L288.458 112.701L288.216 112.437ZM334.076 70.3355L334.317 70.599L334.567 70.3701L334.352 70.1085L334.076 70.3355ZM317.059 52.246L317.304 51.9847L317.062 51.7584L316.818 51.9825L317.059 52.246ZM291.33 75.8644L291.088 75.6009L291.088 75.6011L291.33 75.8644ZM285.085 75.8644L285.327 75.6011L285.327 75.6009L285.085 75.8644ZM211.456 8.2657L211.698 8.00222L211.456 7.78011L211.215 8.00225L211.456 8.2657ZM191.971 26.1584H191.614V26.9725L192.213 26.4219L191.971 26.1584ZM191.971 13.6335L191.729 13.3699L191.614 13.4762V13.6335H191.971ZM204.478 2.16422L204.72 2.42784L205.321 1.87646L204.508 1.8078L204.478 2.16422ZM114.871 16.3352L114.732 16.006L114.871 16.6929V16.3352ZM184.868 16.3352H185.226V15.9776H184.868V16.3352ZM184.868 26.3731V26.7308H185.226V26.3731H184.868ZM94.7779 26.3731V26.0155H94.6827L94.6 26.0628L94.7779 26.3731ZM49.9566 62.1049L49.6939 61.8622L49.1393 62.4626H49.9566V62.1049ZM184.868 62.1049H185.226V61.7472H184.868V62.1049ZM184.868 72.1606V72.5183H185.226V72.1606H184.868ZM41.3323 72.1606V71.8029H41.1606L41.0532 71.9369L41.3323 72.1606ZM18.7159 107.892L18.3941 107.736L18.1447 108.25H18.7159V107.892ZM184.868 107.892H185.226V107.535H184.868V107.892ZM184.868 117.948V118.306H185.226V117.948H184.868ZM14.2427 117.948V117.591H14.0034L13.9121 117.812L14.2427 117.948ZM3.50702 153.68L3.15595 153.611L3.07281 154.038H3.50702V153.68ZM184.868 153.68H185.226V153.322H184.868V153.68ZM184.868 163.736V164.093H185.226V163.736H184.868ZM1.84301 163.736V163.378H1.53196L1.48878 163.686L1.84301 163.736ZM58.2052 326.023L57.9578 326.281L58.5437 325.907L58.2052 326.023ZM40.223 296.375L39.9526 296.609L39.9527 296.609L40.223 296.375ZM34.0499 189.913V189.555H33.8657L33.7588 189.705L34.0499 189.913ZM45.6623 189.913L45.9299 190.15L46.4576 189.555H45.6623V189.913ZM47.1833 290.345L47.4537 290.111L47.4537 290.111L47.1833 290.345ZM70.0144 336.472L69.6592 336.514L69.6762 336.659L69.7895 336.75L70.0144 336.472ZM96.9429 354.651L96.7694 354.964L97.1733 355.188L97.2891 354.741L96.9429 354.651ZM98.0522 348.586L97.6968 348.545L97.6967 348.546L98.0522 348.586ZM77.2788 296.392L77.0084 296.627L77.0085 296.627L77.2788 296.392ZM71.1059 189.931V189.573H70.9217L70.8147 189.723L71.1059 189.931ZM82.7182 189.931L82.9859 190.168L83.5135 189.573H82.7182V189.931ZM84.2391 290.363L83.9686 290.597L83.9687 290.597L84.2391 290.363ZM107.178 349.784L106.822 349.743L106.822 349.744L107.178 349.784ZM105.245 359.053L104.902 358.952L104.817 359.24L105.087 359.374L105.245 359.053ZM128.112 368.482L127.997 368.821L128.269 368.913L128.418 368.668L128.112 368.482ZM135.108 348.621L135.464 348.662L135.464 348.662L135.108 348.621ZM114.335 296.428L114.064 296.662L114.064 296.663L114.335 296.428ZM108.162 189.966V189.609H107.977L107.87 189.759L108.162 189.966ZM119.774 189.966L120.042 190.204L120.569 189.609H119.774V189.966ZM121.295 290.398L121.024 290.633L121.025 290.633L121.295 290.398ZM144.234 349.82L144.589 349.862L144.589 349.861L144.234 349.82ZM137.166 371.309L136.854 371.135L136.632 371.531L137.069 371.654L137.166 371.309ZM159.55 376.212L159.496 376.566L159.691 376.595L159.821 376.445L159.55 376.212ZM172.164 348.639L172.519 348.68L172.519 348.68L172.164 348.639ZM151.409 296.446L151.679 296.212L151.679 296.212L151.409 296.446ZM145.235 189.984V189.627H145.051L144.944 189.777L145.235 189.984ZM156.848 189.984L157.115 190.222L157.643 189.627H156.848V189.984ZM158.369 290.416L158.098 290.65L158.098 290.65L158.369 290.416ZM181.307 349.838L181.662 349.88L181.663 349.879L181.307 349.838ZM170.285 377.554L169.995 377.345L169.631 377.85L170.251 377.91L170.285 377.554ZM328.439 316.057L328.705 316.296L329.409 315.515L328.375 315.705L328.439 316.057ZM281.059 334.916L281.25 335.218L281.25 335.218L281.059 334.916ZM191.971 354.776H191.614V355.066L191.897 355.126L191.971 354.776ZM191.971 345.687L192.053 345.339L191.614 345.235V345.687H191.971ZM276.157 327.114L275.966 326.811L275.966 326.812L276.157 327.114ZM337.064 305.733L337.098 306.089L337.251 306.074L337.346 305.952L337.064 305.733ZM354.903 278.249L355.219 278.417L355.486 277.913L354.916 277.892L354.903 278.249ZM281.059 299.041L280.869 298.738L280.869 298.738L281.059 299.041ZM191.971 318.919H191.614V319.209L191.897 319.269L191.971 318.919ZM191.971 309.83L192.053 309.482L191.614 309.378V309.83H191.971ZM276.157 291.257L275.966 290.955L275.966 290.955L276.157 291.257ZM359.215 269.625L359.19 269.982L359.435 269.999L359.539 269.776L359.215 269.625ZM369.038 243.734L369.381 243.836L369.498 243.443L369.092 243.381L369.038 243.734ZM281.059 263.201L281.25 263.504L281.25 263.504L281.059 263.201ZM191.971 283.062H191.614V283.352L191.897 283.412L191.971 283.062ZM191.971 273.973L192.053 273.625L191.614 273.521V273.973H191.971ZM276.157 255.4L275.966 255.097L275.966 255.097L276.157 255.4ZM371.364 235.164L371.307 235.517L371.633 235.569L371.711 235.249L371.364 235.164ZM375.891 209.112L376.247 209.148L376.279 208.827L375.964 208.762L375.891 209.112ZM310.419 45.8542C285.34 24.5932 254.631 9.78548 220.839 3.94129L220.717 4.6462C254.38 10.4681 284.972 25.2192 309.956 46.3998L310.419 45.8542ZM220.536 4.55723L288.027 66.5198L288.511 65.9928L221.02 4.03026L220.536 4.55723ZM288.511 66.5198L310.43 46.3904L309.946 45.8635L288.027 65.9929L288.511 66.5198ZM192.249 152.619L208.621 137.589L208.137 137.062L191.765 152.092L192.249 152.619ZM208.621 137.589C210.256 136.086 212.747 136.088 214.362 137.588L214.849 137.064C212.958 135.308 210.044 135.309 208.137 137.063L208.621 137.589ZM214.364 137.589L271.638 190.176L272.122 189.649L214.848 137.062L214.364 137.589ZM271.88 189.555H258.246V190.27H271.88V189.555ZM258.488 189.649L211.734 146.725L211.25 147.252L258.004 190.176L258.488 189.649ZM211.25 146.725L191.765 164.617L192.249 165.144L211.734 147.252L211.25 146.725ZM192.365 164.881V152.356H191.649V164.881H192.365ZM280.905 226.934C254.726 243.398 231.638 248.905 212.476 248.905V249.621C231.784 249.621 255.002 244.07 281.286 227.54L280.905 226.934ZM212.476 248.905C205.078 248.905 198.268 248.067 192.082 246.748L191.932 247.448C198.164 248.777 205.024 249.621 212.476 249.621V248.905ZM192.365 247.098V237.991H191.649V247.098H192.365ZM191.925 238.339C212.385 243.157 241.093 241.92 276.383 219.721L276.002 219.115C240.866 241.218 212.354 242.415 192.089 237.642L191.925 238.339ZM276.383 219.721C313.991 196.053 349.572 195.073 376.536 200.462L376.677 199.761C349.569 194.343 313.794 195.332 276.002 219.115L276.383 219.721ZM376.964 200.131C377.143 196.744 377.251 193.338 377.251 189.895H376.535C376.535 193.323 376.428 196.716 376.249 200.093L376.964 200.131ZM377.251 189.895C377.251 177.883 376.085 166.159 373.934 154.777L373.231 154.909C375.374 166.25 376.535 177.93 376.535 189.895H377.251ZM373.824 154.579L365.236 146.707L364.753 147.234L373.341 155.107L373.824 154.579ZM364.752 146.707L317.999 189.631L318.482 190.158L365.236 147.234L364.752 146.707ZM318.24 189.537H304.606V190.253H318.24V189.537ZM304.848 190.158L362.123 137.572L361.639 137.045L304.364 189.631L304.848 190.158ZM362.123 137.571C363.758 136.068 366.249 136.07 367.864 137.57L368.351 137.046C366.46 135.29 363.546 135.291 361.639 137.045L362.123 137.571ZM367.866 137.572L369.601 139.164L370.085 138.637L368.349 137.045L367.866 137.572ZM370.187 138.804C367.104 127.815 363.089 117.238 358.159 107.145L357.516 107.459C362.427 117.513 366.427 128.049 369.499 138.997L370.187 138.804ZM357.595 107.039L291.124 168.071L291.607 168.598L358.079 107.565L357.595 107.039ZM291.123 168.071C289.489 169.573 286.998 169.573 285.363 168.071L284.879 168.597C286.787 170.351 289.699 170.351 291.608 168.597L291.123 168.071ZM285.363 168.071L211.734 100.472L211.25 100.999L284.879 168.598L285.363 168.071ZM211.25 100.472L191.765 118.365L192.249 118.892L211.734 100.999L211.25 100.472ZM192.365 118.628V106.103H191.649V118.628H192.365ZM192.249 106.367L208.621 91.3368L208.137 90.8098L191.765 105.84L192.249 106.367ZM208.621 91.3366C210.256 89.8335 212.747 89.8352 214.362 91.3354L214.849 90.8112C212.958 89.0548 210.044 89.0565 208.137 90.8099L208.621 91.3366ZM214.364 91.3367L287.992 158.936L288.476 158.409L214.848 90.8098L214.364 91.3367ZM288.476 158.936L353.66 99.0843L353.176 98.5574L287.992 158.409L288.476 158.936ZM353.731 98.6476C349.644 91.2623 345.09 84.1632 340.07 77.4222L339.497 77.8494C344.497 84.5637 349.033 91.6357 353.105 98.994L353.731 98.6476ZM339.542 77.3723L291.106 121.836L291.59 122.363L340.025 77.8993L339.542 77.3723ZM291.106 121.836C289.471 123.338 286.98 123.338 285.345 121.836L284.861 122.363C286.769 124.117 289.681 124.117 291.59 122.363L291.106 121.836ZM285.345 121.836L211.716 54.237L211.232 54.764L284.861 122.363L285.345 121.836ZM211.232 54.237L191.747 72.1298L192.231 72.6567L211.716 54.7639L211.232 54.237ZM192.347 72.3932V59.8683H191.631V72.3932H192.347ZM192.231 60.1318L208.603 45.1019L208.119 44.5749L191.747 59.6048L192.231 60.1318ZM208.603 45.1017C210.238 43.5986 212.729 43.6003 214.344 45.1005L214.831 44.5763C212.94 42.8199 210.027 42.8216 208.119 44.575L208.603 45.1017ZM214.346 45.1018L287.974 112.701L288.458 112.174L214.83 44.5749L214.346 45.1018ZM288.458 112.701L334.317 70.599L333.834 70.072L287.974 112.174L288.458 112.701ZM334.352 70.1085C329.081 63.6899 323.362 57.6487 317.304 51.9847L316.815 52.5073C322.852 58.1514 328.549 64.1699 333.799 70.5625L334.352 70.1085ZM316.818 51.9825L291.088 75.6009L291.572 76.1279L317.301 52.5095L316.818 51.9825ZM291.088 75.6011C289.453 77.1035 286.962 77.1035 285.327 75.6011L284.843 76.1278C286.751 77.8818 289.664 77.8818 291.572 76.1278L291.088 75.6011ZM285.327 75.6009L211.698 8.00222L211.215 8.52919L284.843 76.1279L285.327 75.6009ZM211.215 8.00225L191.729 25.895L192.213 26.4219L211.698 8.52916L211.215 8.00225ZM192.329 26.1584V13.6335H191.614V26.1584H192.329ZM192.213 13.8971L204.72 2.42784L204.236 1.9006L191.729 13.3699L192.213 13.8971ZM204.508 1.8078C199.205 1.35987 193.845 1.07298 188.411 1.07298V1.78835C193.82 1.78835 199.159 2.07393 204.448 2.52063L204.508 1.8078ZM188.411 1.07298C162.274 1.07298 137.356 6.39707 114.732 16.006L115.011 16.6645C137.549 7.09239 162.372 1.78835 188.411 1.78835V1.07298ZM114.871 16.6929H184.868V15.9776H114.871V16.6929ZM184.51 16.3352V26.3731H185.226V16.3352H184.51ZM184.868 26.0155H94.7779V26.7308H184.868V26.0155ZM94.6 26.0628C77.8385 35.6716 62.7085 47.772 49.6939 61.8622L50.2194 62.3476C63.185 48.3104 78.2579 36.2557 94.9558 26.6835L94.6 26.0628ZM49.9566 62.4626H184.868V61.7472H49.9566V62.4626ZM184.51 62.1049V72.1606H185.226V62.1049H184.51ZM184.868 71.8029H41.3323V72.5183H184.868V71.8029ZM41.0532 71.9369C32.2336 82.9435 24.6148 94.9185 18.3941 107.736L19.0376 108.049C25.2345 95.2799 32.8245 83.35 41.6114 72.3843L41.0532 71.9369ZM18.7159 108.25H184.868V107.535H18.7159V108.25ZM184.51 107.892V117.948H185.226V107.892H184.51ZM184.868 117.591H14.2427V118.306H184.868V117.591ZM13.9121 117.812C9.19724 129.231 5.57603 141.206 3.15595 153.611L3.85808 153.748C6.26904 141.39 9.87651 129.461 14.5733 118.085L13.9121 117.812ZM3.50702 154.038H184.868V153.322H3.50702V154.038ZM184.51 153.68V163.736H185.226V153.68H184.51ZM184.868 163.378H1.84301V164.093H184.868V163.378ZM1.48878 163.686C0.287766 172.254 -0.357685 181.003 -0.357685 189.895H0.357685C0.357685 181.037 1.00062 172.322 2.19723 163.785L1.48878 163.686ZM-0.357685 189.895C-0.357685 243.532 22.0513 291.898 57.9578 326.281L58.4525 325.764C22.6806 291.511 0.357685 243.328 0.357685 189.895H-0.357685ZM58.5437 325.907C55.2332 316.192 49.2474 306.24 40.4933 296.14L39.9527 296.609C48.6618 306.656 54.5926 316.53 57.8666 326.138L58.5437 325.907ZM40.4933 296.14C20.3565 272.891 15.7944 250.65 17.7654 232.104C19.738 213.542 28.2589 198.646 34.3411 190.12L33.7588 189.705C27.6382 198.285 19.0446 213.297 17.054 232.028C15.0618 250.774 19.6876 273.212 39.9526 296.609L40.4933 296.14ZM34.0499 190.27H45.6623V189.555H34.0499V190.27ZM45.3947 189.675C41.6642 193.882 31.3626 206.757 27.3333 224.759C23.2991 242.784 25.5621 265.915 46.9128 290.579L47.4537 290.111C26.2555 265.623 24.0453 242.725 28.0314 224.915C32.0226 207.083 42.235 194.317 45.9299 190.15L45.3947 189.675ZM46.9128 290.579C60.3544 306.109 67.8985 321.504 69.6592 336.514L70.3697 336.431C68.5876 321.238 60.9586 305.714 47.4537 290.111L46.9128 290.579ZM69.7895 336.75C78.2148 343.562 87.2319 349.675 96.7694 354.964L97.1164 354.338C87.616 349.07 78.6332 342.981 70.2393 336.194L69.7895 336.75ZM97.2891 354.741C97.7945 352.792 98.1733 350.753 98.4078 348.625L97.6967 348.546C97.466 350.641 97.0933 352.646 96.5967 354.561L97.2891 354.741ZM98.4076 348.626C100.302 331.939 93.2596 314.29 77.5491 296.158L77.0085 296.627C92.646 314.674 99.5601 332.131 97.6968 348.545L98.4076 348.626ZM77.5492 296.158C57.4213 272.909 52.8591 250.668 54.828 232.121C56.7984 213.559 65.3148 198.664 71.397 190.138L70.8147 189.723C64.6941 198.303 56.105 213.315 54.1166 232.046C52.1266 250.792 56.7524 273.229 77.0084 296.627L77.5492 296.158ZM71.1059 190.288H82.7182V189.573H71.1059V190.288ZM82.4506 189.693C78.72 193.9 68.4229 206.775 64.3959 224.777C60.3639 242.802 62.6269 265.933 83.9686 290.597L84.5096 290.129C63.3203 265.641 61.1101 242.743 65.094 224.933C69.083 207.101 79.291 194.335 82.9859 190.168L82.4506 189.693ZM83.9687 290.597C101.392 310.715 109.044 330.605 106.822 349.743L107.533 349.826C109.785 330.423 102.013 310.34 84.5095 290.128L83.9687 290.597ZM106.822 349.744C106.449 353.011 105.757 356.05 104.902 358.952L105.588 359.154C106.451 356.223 107.154 353.142 107.533 349.825L106.822 349.744ZM105.087 359.374C112.456 363.013 120.129 366.15 127.997 368.821L128.227 368.144C120.386 365.482 112.742 362.357 105.404 358.732L105.087 359.374ZM128.418 368.668C131.694 363.285 134.562 356.58 135.464 348.662L134.753 348.581C133.865 356.373 131.043 362.98 127.807 368.296L128.418 368.668ZM135.464 348.662C137.358 331.975 130.316 314.326 114.605 296.194L114.064 296.663C129.702 314.71 136.616 332.166 134.753 348.581L135.464 348.662ZM114.605 296.194C94.4683 272.945 89.9062 250.704 91.8772 232.157C93.8498 213.595 102.371 198.7 108.453 190.174L107.87 189.759C101.75 198.338 93.1564 213.351 91.1658 232.082C89.1736 250.828 93.7994 273.265 114.064 296.662L114.605 296.194ZM108.162 190.324H119.774V189.609H108.162V190.324ZM119.506 189.729C115.776 193.936 105.474 206.81 101.445 224.813C97.4107 242.838 99.6737 265.969 121.024 290.633L121.565 290.164C100.367 265.677 98.157 242.779 102.143 224.969C106.134 207.137 116.347 194.371 120.042 190.204L119.506 189.729ZM121.025 290.633C138.448 310.751 146.099 330.641 143.878 349.779L144.589 349.861C146.841 330.458 139.069 310.376 121.565 290.164L121.025 290.633ZM143.878 349.778C142.901 358.115 140.145 365.246 136.854 371.135L137.478 371.484C140.807 365.528 143.598 358.308 144.589 349.862L143.878 349.778ZM137.069 371.654C144.381 373.715 151.857 375.4 159.496 376.566L159.604 375.858C151.998 374.698 144.551 373.019 137.263 370.965L137.069 371.654ZM159.821 376.445C164.947 370.492 171.095 361.051 172.519 348.68L171.809 348.598C170.406 360.776 164.351 370.087 159.279 375.979L159.821 376.445ZM172.519 348.68C174.414 331.993 167.372 314.344 151.679 296.212L151.138 296.68C166.758 314.728 173.672 332.184 171.809 348.599L172.519 348.68ZM151.679 296.212C131.542 272.963 126.98 250.722 128.951 232.175C130.923 213.613 139.444 198.718 145.527 190.192L144.944 189.777C138.824 198.356 130.23 213.369 128.24 232.1C126.247 250.846 130.873 273.283 151.138 296.68L151.679 296.212ZM145.235 190.342H156.848V189.627H145.235V190.342ZM156.58 189.747C152.85 193.954 142.548 206.828 138.519 224.831C134.485 242.856 136.748 265.987 158.098 290.65L158.639 290.182C137.441 265.695 135.231 242.797 139.217 224.987C143.208 207.155 153.42 194.389 157.115 190.222L156.58 189.747ZM158.098 290.65C175.522 310.769 183.173 330.677 180.952 349.797L181.663 349.879C183.915 330.494 176.143 310.394 158.639 290.182L158.098 290.65ZM180.952 349.796C179.601 361.333 174.872 370.563 169.995 377.345L170.576 377.763C175.504 370.91 180.294 361.568 181.662 349.88L180.952 349.796ZM170.251 377.91C176.22 378.484 182.261 378.788 188.393 378.788V378.073C182.285 378.073 176.267 377.769 170.319 377.198L170.251 377.91ZM188.393 378.788C244.091 378.788 294.143 354.659 328.705 316.296L328.174 315.817C293.741 354.036 243.88 378.073 188.393 378.073V378.788ZM328.375 315.705C313.426 318.45 297.405 324.193 280.869 334.613L281.25 335.218C297.708 324.847 313.643 319.138 328.504 316.408L328.375 315.705ZM280.869 334.613C254.69 351.077 231.603 356.584 212.441 356.584V357.299C231.748 357.299 254.967 351.748 281.25 335.218L280.869 334.613ZM212.441 356.584C205.042 356.584 198.232 355.746 192.046 354.427L191.897 355.126C198.128 356.455 204.988 357.299 212.441 357.299V356.584ZM192.329 354.776V345.687H191.614V354.776H192.329ZM191.889 346.035C212.349 350.853 241.057 349.617 276.347 327.417L275.966 326.812C240.831 348.914 212.318 350.111 192.053 345.339L191.889 346.035ZM276.347 327.417C297.645 314.028 318.293 307.908 337.098 306.089L337.029 305.377C318.117 307.207 297.361 313.361 275.966 326.811L276.347 327.417ZM337.346 305.952C344.068 297.33 350.056 288.134 355.219 278.417L354.587 278.081C349.444 287.761 343.479 296.922 336.782 305.513L337.346 305.952ZM354.916 277.892C333.235 277.084 307.737 281.842 280.869 298.738L281.25 299.343C307.988 282.529 333.342 277.804 354.889 278.607L354.916 277.892ZM280.869 298.738C254.69 315.202 231.602 320.727 212.441 320.727V321.442C231.748 321.442 254.967 315.873 281.25 299.343L280.869 298.738ZM212.441 320.727C205.042 320.727 198.232 319.889 192.046 318.57L191.897 319.269C198.128 320.598 204.988 321.442 212.441 321.442V320.727ZM192.329 318.919V309.83H191.614V318.919H192.329ZM191.889 310.178C212.349 314.996 241.057 313.76 276.347 291.56L275.966 290.955C240.831 313.057 212.318 314.254 192.053 309.482L191.889 310.178ZM276.347 291.56C306.372 272.674 335.102 268.269 359.19 269.982L359.24 269.268C335.018 267.546 306.133 271.979 275.966 290.955L276.347 291.56ZM359.539 269.776C363.429 261.44 366.728 252.781 369.381 243.836L368.695 243.632C366.052 252.544 362.766 261.169 358.891 269.474L359.539 269.776ZM369.092 243.381C344.774 239.666 313.856 242.145 280.869 262.899L281.25 263.504C314.072 242.854 344.813 240.395 368.984 244.088L369.092 243.381ZM280.869 262.899C254.69 279.363 231.603 284.87 212.441 284.87V285.585C231.748 285.585 254.967 280.034 281.25 263.504L280.869 262.899ZM212.441 284.87C205.042 284.87 198.232 284.032 192.046 282.713L191.897 283.412C198.128 284.741 204.988 285.585 212.441 285.585V284.87ZM192.329 283.062V273.973H191.614V283.062H192.329ZM191.889 274.321C212.349 279.139 241.057 277.903 276.347 255.703L275.966 255.097C240.831 277.2 212.318 278.397 192.053 273.625L191.889 274.321ZM276.347 255.703C311.6 233.534 345.058 231.288 371.307 235.517L371.421 234.81C345.029 230.558 311.39 232.821 275.966 255.097L276.347 255.703ZM371.711 235.249C373.79 226.753 375.35 218.058 376.247 209.148L375.535 209.076C374.642 217.95 373.088 226.612 371.016 235.079L371.711 235.249ZM375.964 208.762C350.75 203.504 317.068 204.26 280.887 227.024L281.268 227.629C317.266 204.981 350.753 204.235 375.818 209.462L375.964 208.762Z" fill="white" mask="url(#path-1-outside-1_299_1417)"/>
</g>
<defs>
<clipPath id="clip0_299_1417">
<rect width="377" height="379.861" fill="white"/>
</clipPath>
</defs>
</svg>
