<svg width="50" height="50" viewBox="0 0 50 50" fill="none" xmlns="http://www.w3.org/2000/svg">
<circle cx="24.5" cy="24.5" r="13.5" fill="black"/>
<path fill-rule="evenodd" clip-rule="evenodd" d="M1.25 25C1.25 11.8832 11.8832 1.25 25 1.25C38.1168 1.25 48.75 11.8832 48.75 25C48.75 38.1168 38.1168 48.75 25 48.75C11.8832 48.75 1.25 38.1168 1.25 25ZM25 0.75C11.6071 0.75 0.75 11.6071 0.75 25C0.75 38.3929 11.6071 49.25 25 49.25C38.3929 49.25 49.25 38.3929 49.25 25C49.25 11.6071 38.3929 0.75 25 0.75ZM25.9299 24.7893V34.8173H21.8219V24.7897H19.7695V21.334H21.8219V19.2592C21.8219 16.4401 22.9808 14.7637 26.2733 14.7637H29.0145V18.2198H27.3011C26.0194 18.2198 25.9346 18.7027 25.9346 19.604L25.9299 21.3336H29.0339L28.6707 24.7893H25.9299Z" fill="white"/>
</svg>
