<svg width="49" height="50" viewBox="0 0 49 50" fill="none" xmlns="http://www.w3.org/2000/svg">
<circle cx="24.5" cy="24.5" r="13.5" fill="black"/>
<path d="M1.2 25C1.2 11.8516 11.6357 1.2 24.5 1.2V0.8C11.4069 0.8 0.8 11.6387 0.8 25H1.2ZM24.5 1.2C37.3643 1.2 47.8 11.8516 47.8 25H48.2C48.2 11.6387 37.5931 0.8 24.5 0.8V1.2ZM47.8 25C47.8 38.1484 37.3643 48.8 24.5 48.8V49.2C37.5931 49.2 48.2 38.3613 48.2 25H47.8ZM24.5 48.8C11.6357 48.8 1.2 38.1484 1.2 25H0.8C0.8 38.3613 11.4069 49.2 24.5 49.2V48.8Z" fill="white"/>
<path d="M24.7125 14.9165C22.0691 14.9165 21.7374 14.9282 20.6992 14.9759C19.663 15.0238 18.9557 15.1895 18.3369 15.4326C17.6967 15.6837 17.1537 16.0196 16.6127 16.5662C16.0713 17.1126 15.7387 17.6611 15.4893 18.3074C15.248 18.9327 15.0838 19.6472 15.0371 20.6934C14.9907 21.7419 14.9785 22.0772 14.9785 24.747C14.9785 27.4168 14.9903 27.7508 15.0373 28.7994C15.085 29.846 15.249 30.5603 15.4895 31.1854C15.7383 31.8319 16.0709 32.3804 16.6121 32.9268C17.1529 33.4736 17.6959 33.8103 18.3356 34.0614C18.9549 34.3045 19.6624 34.4702 20.6984 34.5181C21.7366 34.5658 22.0681 34.5775 24.7113 34.5775C27.3548 34.5775 27.6856 34.5658 28.7238 34.5181C29.76 34.4702 30.468 34.3045 31.0873 34.0614C31.7273 33.8103 32.2695 33.4736 32.8103 32.9268C33.3517 32.3804 33.6842 31.8319 33.9337 31.1856C34.1729 30.5603 34.3372 29.8458 34.3858 28.7996C34.4325 27.751 34.4447 27.4168 34.4447 24.747C34.4447 22.0772 34.4325 21.7422 34.3858 20.6936C34.3372 19.647 34.1729 18.9327 33.9337 18.3076C33.6842 17.6611 33.3517 17.1126 32.8103 16.5662C32.2689 16.0194 31.7275 15.6835 31.0867 15.4326C30.4662 15.1895 29.7585 15.0238 28.7224 14.9759C27.6842 14.9282 27.3536 14.9165 24.7095 14.9165H24.7125Z" fill="black"/>
<path fill-rule="evenodd" clip-rule="evenodd" d="M23.8445 17.0249C24.0123 17.0246 24.1928 17.0247 24.3875 17.0248L24.7086 17.0249C27.2802 17.0249 27.585 17.0342 28.6006 17.0808C29.5397 17.1242 30.0494 17.2827 30.3889 17.4158C30.8384 17.5922 31.1588 17.8029 31.4957 18.1434C31.8329 18.4839 32.0415 18.8082 32.2165 19.2622C32.3484 19.6047 32.5055 20.1194 32.5482 21.0679C32.5944 22.0934 32.6044 22.4015 32.6044 24.9977C32.6044 27.5939 32.5944 27.9019 32.5482 28.9274C32.5053 29.8759 32.3484 30.3907 32.2165 30.7332C32.042 31.1872 31.8329 31.5104 31.4957 31.8507C31.1586 32.1912 30.8386 32.402 30.3889 32.5783C30.0498 32.7121 29.5397 32.8701 28.6006 32.9135C27.5852 32.9601 27.2802 32.9703 24.7086 32.9703C22.1367 32.9703 21.8319 32.9601 20.8165 32.9135C19.8774 32.8697 19.3677 32.7113 19.028 32.5781C18.5785 32.4018 18.2575 32.191 17.9204 31.8505C17.5832 31.51 17.3746 31.1866 17.1996 30.7324C17.0677 30.3899 16.9106 29.8751 16.8679 28.9266C16.8217 27.9011 16.8125 27.5931 16.8125 24.9952C16.8125 22.3974 16.8217 22.091 16.8679 21.0655C16.9108 20.117 17.0677 19.6022 17.1996 19.2593C17.3742 18.8053 17.5832 18.4811 17.9204 18.1406C18.2575 17.8001 18.5785 17.5893 19.028 17.4126C19.3675 17.2788 19.8774 17.1208 20.8165 17.0772C21.705 17.0366 22.0494 17.0245 23.8445 17.0225V17.0249ZM29.8492 18.6401C29.2111 18.6401 28.6934 19.1623 28.6934 19.807C28.6934 20.4515 29.2111 20.9744 29.8492 20.9744C30.4873 20.9744 31.005 20.4515 31.005 19.807C31.005 19.1625 30.4873 18.6396 29.8492 18.6396V18.6401ZM19.7617 24.9997C19.7617 22.2408 21.9764 20.0039 24.708 20.0039H24.7078C27.4395 20.0039 29.6536 22.2408 29.6536 24.9997C29.6536 27.7586 27.4397 29.9945 24.708 29.9945C21.9764 29.9945 19.7617 27.7586 19.7617 24.9997Z" fill="white"/>
<path d="M24.7106 21.7573C26.4836 21.7573 27.9212 23.209 27.9212 25C27.9212 26.7908 26.4836 28.2427 24.7106 28.2427C22.9373 28.2427 21.5 26.7908 21.5 25C21.5 23.209 22.9373 21.7573 24.7106 21.7573V21.7573Z" fill="white"/>
</svg>
