<svg width="60" height="60" viewBox="0 0 60 60" fill="none" xmlns="http://www.w3.org/2000/svg">
<circle cx="30" cy="30" r="30" fill="white"/>
<g clip-path="url(#clip0_89_740)">
<path d="M28.7847 23.0168L21.4943 30.3451L28.7846 37.6734C28.8505 37.7599 28.9341 37.8312 29.0299 37.8825C29.1257 37.9338 29.2314 37.964 29.3399 37.9709C29.4484 37.9778 29.557 37.9613 29.6586 37.9226C29.7601 37.8839 29.8521 37.8238 29.9284 37.7464C30.0047 37.669 30.0635 37.5761 30.1008 37.474C30.1381 37.3719 30.153 37.263 30.1445 37.1547C30.136 37.0463 30.1044 36.9411 30.0517 36.846C29.999 36.751 29.9265 36.6683 29.8391 36.6037L24.3847 31.1037L38.8971 31.1037C39.0983 31.1037 39.2912 31.0238 39.4335 30.8815C39.5758 30.7393 39.6557 30.5463 39.6557 30.3451C39.6557 30.1439 39.5758 29.951 39.4335 29.8087C39.2912 29.6664 39.0983 29.5865 38.8971 29.5865L24.3847 29.5865L29.8391 24.0865C29.981 23.9436 30.0603 23.7503 30.0596 23.549C30.0588 23.3477 29.9782 23.1549 29.8353 23.013C29.6925 22.8712 29.4991 22.7919 29.2978 22.7926C29.0965 22.7933 28.9037 22.874 28.7619 23.0168L28.7847 23.0168Z" fill="black"/>
</g>
<defs>
<clipPath id="clip0_89_740">
<rect width="15.1724" height="18.2069" fill="white" transform="translate(39.7012 22.7588) rotate(90)"/>
</clipPath>
</defs>
</svg>
