<svg width="50" height="50" viewBox="0 0 50 50" fill="none" xmlns="http://www.w3.org/2000/svg">
<circle cx="25.5" cy="24.5" r="13.5" fill="black"/>
<path fill-rule="evenodd" clip-rule="evenodd" d="M1.25 25C1.25 11.8832 11.8832 1.25 25 1.25C38.1168 1.25 48.75 11.8832 48.75 25C48.75 38.1168 38.1168 48.75 25 48.75C11.8832 48.75 1.25 38.1168 1.25 25ZM25 0.75C11.6071 0.75 0.75 11.6071 0.75 25C0.75 38.3929 11.6071 49.25 25 49.25C38.3929 49.25 49.25 38.3929 49.25 25C49.25 11.6071 38.3929 0.75 25 0.75ZM16.7383 21.8667H20.8309V34.2864H16.7383V21.8667ZM21.1003 18.0251C21.0737 16.8074 20.2116 15.8799 18.8115 15.8799C17.4114 15.8799 16.4961 16.8074 16.4961 18.0251C16.4961 19.2177 17.3844 20.1719 18.7584 20.1719H18.7845C20.2116 20.1719 21.1003 19.2177 21.1003 18.0251ZM30.8778 21.5752C33.571 21.5752 35.59 23.3507 35.59 27.1655L35.5899 34.2865H31.4974V27.642C31.4974 25.973 30.9051 24.8342 29.4236 24.8342C28.2929 24.8342 27.6194 25.6019 27.3236 26.3435C27.2154 26.6092 27.1889 26.9795 27.1889 27.3507V34.2869H23.0957C23.0957 34.2869 23.1496 23.0326 23.0957 21.8672H27.1889V23.6263C27.732 22.7807 28.7049 21.5752 30.8778 21.5752Z" fill="white"/>
</svg>
