<svg width="184" height="37" viewBox="0 0 184 37" fill="none" xmlns="http://www.w3.org/2000/svg">
<path d="M181.965 16.3895C181.555 16.0417 181.053 15.7996 180.5 15.704L181.606 16.7193L181.965 16.3895Z" fill="white"/>
<path d="M180.029 18.1302L180.297 17.884C180.326 17.8573 180.371 17.8573 180.399 17.884L181.338 18.7457H181.115L180.348 18.0423L180.029 18.3355V18.1302ZM181.489 19.3573C181.059 19.6276 180.68 19.7182 180.365 19.7182C180.243 19.7182 180.131 19.7044 180.029 19.6827V19.5335C180.363 19.6121 180.832 19.5921 181.409 19.2292C182.026 18.8404 182.611 18.8242 183.054 18.9128C183.057 18.8574 183.059 18.8017 183.059 18.7454C183.059 18.5489 183.04 18.3572 183.005 18.171L182.864 18.042L182.098 18.7454H181.874L182.813 17.8837C182.842 17.857 182.886 17.857 182.915 17.8837L182.943 17.9098C182.893 17.73 182.827 17.557 182.747 17.392L181.657 18.3921C181.628 18.4187 181.584 18.4187 181.555 18.3921L180.348 17.2844L180.029 17.5776V17.3723L180.297 17.126C180.326 17.0994 180.371 17.0994 180.399 17.126L181.606 18.2337L182.674 17.253C182.607 17.1322 182.533 17.0161 182.451 16.9058L181.657 17.6344C181.628 17.6611 181.584 17.6611 181.555 17.6344L180.348 16.5267L180.029 16.8199V16.6147L180.297 16.3684C180.326 16.3417 180.37 16.3417 180.399 16.3684L181.606 17.4761L182.357 16.7862C182.271 16.6812 182.177 16.5824 182.078 16.4898L181.657 16.8768C181.628 16.9035 181.583 16.9035 181.554 16.8768L180.348 15.7691L180.029 16.0623V15.8571L180.233 15.6691C180.147 15.6618 180.059 15.6571 179.97 15.6571C179.543 15.6571 179.135 15.7442 178.765 15.9013H179.912V16.0658H178.436C178.162 16.223 177.914 16.4209 177.701 16.6513H179.912V16.8161H177.56C177.416 16.9961 177.291 17.192 177.189 17.4016H179.912V17.5664H177.116C177.039 17.7532 176.98 17.949 176.94 18.1519H179.912V18.3167H176.913C176.893 18.4569 176.883 18.5999 176.883 18.7454C176.883 19.6226 177.249 20.4137 177.837 20.976C177.783 20.8177 177.685 20.6553 177.542 20.4902C176.88 19.7258 177.241 19.026 177.441 18.7457H177.631C177.509 18.8829 176.959 19.586 177.656 20.3914C177.877 20.6465 178.001 20.8998 178.03 21.1473C178.168 21.2587 178.315 21.3587 178.471 21.4452C178.48 21.4135 178.486 21.3804 178.49 21.3458C178.52 21.0746 178.406 20.7869 178.149 20.4905C177.487 19.7261 177.848 19.0263 178.048 18.746H178.238C178.117 18.8832 177.566 19.5863 178.263 20.3917C178.549 20.7221 178.676 21.0496 178.639 21.3654C178.633 21.4194 178.621 21.4695 178.607 21.5173C178.728 21.5768 178.853 21.6281 178.982 21.6718C179.035 21.5841 179.082 21.4751 179.097 21.3463C179.128 21.0751 179.013 20.7875 178.756 20.4911C178.094 19.7267 178.455 19.0268 178.655 18.7465H178.845C178.724 18.8838 178.173 19.5869 178.87 20.3923C179.157 20.7227 179.283 21.0502 179.246 21.366C179.23 21.5035 179.185 21.6211 179.13 21.7181C179.25 21.7518 179.372 21.7794 179.497 21.7985C179.581 21.7014 179.681 21.5478 179.704 21.3466C179.735 21.0754 179.62 20.7878 179.364 20.4914C178.702 19.727 179.063 19.0271 179.263 18.7468H179.453C179.331 18.8841 178.781 19.5871 179.478 20.3926C179.764 20.723 179.89 21.0508 179.854 21.3663C179.832 21.5566 179.754 21.7087 179.673 21.8205C179.771 21.8298 179.87 21.8348 179.97 21.8348C180.881 21.8348 181.699 21.4402 182.265 20.8127C182.021 20.8576 181.759 20.9514 181.488 21.1218C181.059 21.3921 180.679 21.4827 180.364 21.4827C180.242 21.4827 180.13 21.4689 180.029 21.4472V21.2983C180.362 21.3768 180.831 21.3569 181.408 20.9939C181.758 20.774 182.097 20.6735 182.406 20.6435C182.516 20.5025 182.614 20.3521 182.698 20.1932C182.344 20.18 181.928 20.2577 181.488 20.5339C181.059 20.8042 180.679 20.8951 180.364 20.8951C180.242 20.8951 180.13 20.8813 180.029 20.8596V20.7107C180.362 20.7893 180.831 20.7693 181.408 20.4063C181.901 20.0961 182.373 20.0237 182.769 20.0519C182.833 19.9155 182.887 19.7739 182.93 19.6276C182.533 19.5669 182.028 19.6074 181.488 19.9466C181.059 20.2169 180.679 20.3075 180.364 20.3075C180.242 20.3075 180.13 20.2938 180.029 20.2721V20.1231C180.362 20.2017 180.831 20.1818 181.408 19.8188C181.987 19.4546 182.537 19.4177 182.968 19.4872C183.002 19.3482 183.028 19.206 183.042 19.0603C182.63 18.9744 182.08 18.9867 181.489 19.3587" fill="white"/>
<path d="M167.006 8.63117V21.8337H167.492V8.13156L167.006 8.63117Z" fill="white"/>
<path d="M170.887 4.64338V21.8337H174.332V1.103L170.887 4.64338Z" fill="white"/>
<path d="M175.194 21.8337V0.216949L174.734 0.689294V21.8337H175.194Z" fill="white"/>
<path d="M166.602 9.0452L154.156 21.8337H166.602V9.0452Z" fill="white"/>
<path d="M174.332 25.2286H170.887V33.0093H174.332V25.2286Z" fill="white"/>
<path d="M175.194 25.2286H174.734V33.0093H175.194V25.2286Z" fill="white"/>
<path d="M65.6804 8.92609H70.5584V0.714111H65.6804V8.92609ZM52.9393 8.18024C52.9393 6.16508 54.2333 4.69657 56.0246 4.69657C57.8158 4.69657 59.0851 6.16508 59.0851 8.18024C59.0851 10.1954 57.7911 11.6639 56.0246 11.6639C54.258 11.6639 52.9393 10.1954 52.9393 8.18024ZM56.0246 16.1436C60.6031 16.1436 63.9632 12.7093 63.9632 8.18024C63.9632 3.65115 60.6031 0.216888 56.0246 0.216888C51.4461 0.216888 48.0612 3.65115 48.0612 8.18024C48.0612 12.7093 51.4214 16.1436 56.0246 16.1436ZM41.3425 15.6464H46.2205V0.715657H41.3425V15.6464ZM32.5082 15.6464H37.3863V5.02084H39.5759V0.715657H25.7153V5.02084H32.5082V15.6464ZM18.9209 15.6464H23.799V0.715657H18.9209V15.6464ZM11.6046 15.6464H16.4826V0.715657H1.07942V5.02084H2.87067V11.3412H0.332031V15.6464H7.7472V5.02084H11.6046V15.6464Z" fill="white"/>
<path d="M144.505 15.343L147.578 11.9906L143.154 8.12553L147.555 2.72397L143.9 3.05176e-05L139.802 5.21474L133.818 3.05176e-05H133.748V14.5524H138.311V9.82568L144.505 15.343ZM126.903 14.5509H131.466V0.580645H120.453V4.60942H126.903V14.5509ZM120.617 10.5221H118.614V0.580645H108.299V4.60942H114.049V10.5237H108.299V14.5524H120.615V10.5237L120.617 10.5221ZM101.665 0.580645V10.5221H99.4073V0.580645H94.8442V10.5221H92.4229V14.5509H106.229V0.580645H101.666H101.665ZM77.4274 14.5509H81.9904V7.16967H77.4274V14.5509ZM86.0887 14.5509H90.6517V0.580645H77.2637V4.60942H86.0887V14.5509Z" fill="white"/>
<path d="M142.689 21.8838C139.952 21.8838 137.974 23.8454 137.974 26.6845V32.5019H139.696V26.7029C139.696 24.8273 140.918 23.5195 142.691 23.5195C144.464 23.5195 145.686 24.8437 145.686 26.7029V32.5204H147.406V26.6865C147.406 23.8639 145.428 21.8858 142.691 21.8858M136.513 30.903H134.621V22.1789H127.272V23.7799H132.899V30.9051H127.272V32.506H136.513V30.9051V30.903ZM123.263 32.504H124.983V22.1789H117.583V23.7799H123.261V32.504H123.263ZM113.92 32.504H115.641V22.1789H105.505V23.7799H107.432V30.9051H104.988V32.506H109.154V23.7819H113.922V32.506L113.92 32.504ZM98.7938 30.903H96.9018V22.1789H89.5532V23.7799H95.18V30.9051H89.5532V32.506H98.7938V30.9051V30.903ZM82.4116 30.903V32.504H87.2635L87.2471 22.1789H85.5437V30.903H82.4116ZM80.6897 27.7196H82.4095V22.1789H80.6897V27.7196ZM76.6802 27.7196H78.4021V22.1789H76.6802V27.7196ZM65.4594 32.504H67.1792V26.3606H65.4594V32.504ZM72.4986 32.504H74.2204V22.1789H65.3405V23.7799H72.4986V32.504ZM58.5781 30.903H56.6861V22.1789H49.3375V23.7799H54.9643V30.9051H49.3375V32.506H58.5781V30.9051V30.903ZM45.3628 27.7196H47.0847V22.1789H45.3628V27.7196ZM33.4902 27.324V27.1355H38.0162V22.1789H36.3292V25.5509H33.4902V22.1789H31.7704V27.324C31.7704 30.5771 34.0416 32.7971 37.3808 32.7971C40.7199 32.7971 42.9912 30.5771 42.9912 27.324V22.1789H41.2693V27.324C41.2693 29.5952 39.6868 31.1613 37.3808 31.1613C35.0747 31.1613 33.4922 29.5952 33.4922 27.324M27.6235 32.504H29.3454V22.1789H21.9455V23.7799H27.6235V32.504ZM19.3812 32.8319L20.568 31.559L16.7471 27.8242L20.7914 22.9025L19.4488 21.853L15.5418 26.6373L10.6714 21.8879H10.6202V32.506H12.34V25.8973L19.3791 32.8319H19.3812ZM0.332031 23.7799H6.59633L3.05216 32.0571L4.63464 32.6761L9.07458 22.1789H2.0539V20.6293H0.332031V23.7778V23.7799Z" fill="white"/>
</svg>
