<svg width="727" height="825" viewBox="0 0 727 825" fill="none" xmlns="http://www.w3.org/2000/svg">
<path d="M0 412.5V825H363.5H727V412.5V-1.22935e-05H363.5H0V412.5ZM485 310V509H480.5H476V314.3V119.6L480.2 115.3C482.5 112.9 484.5 111 484.7 111C484.9 111 485 200.5 485 310ZM469 318V509H437H405V350.7L405.1 192.5L436.8 159.8C454.2 141.9 468.6 127.1 468.8 127.1C468.9 127 469 212.9 469 318ZM343.8 382.7L343.5 508.5L338.8 508.8L334 509.1V387.3V265.6L338.2 261.3C340.5 258.9 342.8 257 343.2 257C343.6 257 343.9 313.6 343.8 382.7ZM326.7 508.7C326.5 508.9 274.9 508.9 212 508.8L97.6 508.5L212 390.9L326.5 273.3L326.8 390.8C326.9 455.4 326.9 508.5 326.7 508.7ZM575.7 396.8C572.8 399.9 573.7 401.3 577 399L580 396.8L590.9 406.9C596.8 412.5 602 417 602.4 417C602.8 417 605.1 415.4 607.4 413.5L611.7 410L614.4 412.9L617.1 415.7L610.2 421.9C606.4 425.2 602.9 428 602.5 428C602.1 428 597 423.5 591 418C585.1 412.5 579.9 408 579.5 408C578.1 408 574 412.3 574 413.7C574 414.7 574.9 414.4 577 412.9L579.9 410.7L590.9 420.9C597 426.6 602.4 431 602.9 430.8C603.5 430.7 607.1 427.6 611.1 424.1L618.2 417.7L620.1 420.1C621.1 421.4 622 423 622 423.7C622 424.8 604.9 441.1 602.9 441.8C602.4 442 597.3 437.7 591.5 432.3C585.6 426.9 580.4 422.3 579.9 422.1C578.5 421.7 574 426 574 427.8C574 429 574.6 428.8 576.3 427.2C577.6 426 579 425 579.5 425C579.9 425 585.1 429.5 591 435C597 440.5 602.2 445 602.7 445C603.1 445 607.9 440.9 613.3 436C618.7 431 623.5 427.2 624 427.5C624.5 427.8 625.4 429.7 626.1 431.7C627.1 434.8 627 435.4 625.5 436.3C621.7 438.4 609.4 450.5 610.7 450.8C611.5 451 615 448.4 618.6 445.1C622.1 441.7 625.5 439 625.9 439C627.8 439 629.1 442.2 629.7 448.5L630.3 455.2L625.3 454.5C617.7 453.5 609.9 455.4 598.7 461.1C589.9 465.6 587.5 466.4 581.3 466.8C577.3 467 574 467.7 574 468.2C574 468.8 577 469.1 581.4 468.8C587.9 468.5 589.9 467.9 599.1 463.2C610.2 457.7 618.8 455.4 625.1 456.5C628.6 457.1 629 457.5 629 460C629 465.1 628.3 465.8 623.6 465.3C617 464.5 609.5 466.6 598.3 472.2C589.8 476.4 587.1 477.3 581.1 477.8C577.2 478 574 478.7 574 479.3C574 479.9 576.9 480.1 581.6 479.8C588.3 479.3 590.4 478.7 598.4 474.5C608.7 469.1 615.3 467 622.3 467C627.5 467 628.1 468 625.5 472.9C624.2 475.5 623.5 475.8 617.4 476.3C612 476.7 608.8 477.8 600.6 481.9C589.4 487.5 582.8 489.4 577.5 488.8C573.9 488.4 572.8 489.3 575.6 490.4C580.7 492.3 588.4 490.4 602 483.6C608.8 480.3 613.3 478.7 617.5 478.3L623.4 477.7L620.8 482C618.6 485.8 617.6 486.5 612.9 487.7C609.9 488.5 602.9 491.4 597.4 494.2C588.5 498.6 586.5 499.2 580.6 499.4C573.6 499.5 572.1 500.4 577 501.5C581.9 502.6 590.9 500.1 601.1 494.8C612.2 489 616.5 488.5 611 493.8C601.9 502.4 589.1 507.7 575.4 508.7C570.8 509 567 509.1 567 508.8C567 508.5 567.7 506.9 568.5 505.4C572 498.7 570 491.3 561.7 479.6C556.4 472.3 555.7 465.5 559.3 457.6C561.2 453.6 561.5 452 560.6 452C558.5 452 555 461.3 555 466.7C555 472.1 557.6 478.4 561.9 483.9C568.2 492 569.5 497.8 566.3 504.6C564.7 507.9 564.3 508.1 561.1 507.6C556.8 506.9 556.8 506.9 558.1 503.1C560 497.7 558.7 491.6 554.4 485.4C545.1 472.1 543.8 465.5 548.5 456.6C550.3 453.3 550.6 452 549.6 452C547.5 452 544.7 458.9 544.2 465.1C543.7 472.3 545.1 476.7 550.2 483.1C556.7 491.4 558.6 498.5 555.7 503.6C554.6 505.7 554.3 505.7 551 504.4C547.7 503.1 547.5 502.7 547.8 499.1C548.2 494.6 545.5 487.7 541.2 482.2C534.3 473.4 533.1 465.2 537.4 456.7C539.2 453.1 539.4 452 538.3 452C536.1 452 532.8 460.5 532.8 466.3C532.7 472.6 534.8 477.7 540.1 484.6C544 489.7 546 494.4 546 498.7C546 501.6 544.9 501.6 540.4 498.7C538.2 497.3 536.7 495.4 536.3 493.6C536 492 533.3 487.2 530.4 483C522.3 471.1 521.5 465.4 526.5 456.2C528.4 452.9 528.6 452 527.4 452C525.7 452 522.5 458.6 521.5 464.1C521.1 466.1 521.3 469.4 521.9 471.6C522.8 475.1 524.2 477.4 531.2 487.9C534.3 492.4 533.1 492.7 529.1 488.3C520.5 478.8 515.7 465.3 516.2 451.7L516.5 443.5L543.8 443.2C560.8 443.1 571 442.6 571 442C571 441.4 561 441 543.9 441H516.8L517.3 438.2C517.6 436.7 518.3 434.3 518.9 432.7L520 430H545.5C567.5 430 571 429.8 571 428.5C571 427.2 567.6 427 546 427H520.9L524.3 421.7L527.6 416.5L549.3 416.2C567.7 416 571 415.7 571 414.5C571 413.2 568 413 550.9 413C536.8 413 531.1 412.7 531.6 411.9C531.9 411.3 534.9 408.8 538.2 406.4L544.2 402H557.6C565.9 402 571 401.6 571 401C571 400.4 566.9 400 560.8 400C554.6 400 551 399.6 551.6 399.1C553.5 397.2 562.8 395.1 569.9 395.1C577 395 577.2 395.1 575.7 396.8ZM597.5 400.6C601.4 402.5 605.6 405 606.9 406.1L609.3 408.1L606.5 411C604.9 412.7 603.1 414 602.6 414C602 413.9 597.2 409.8 592 404.9L582.5 395.8L586.5 396.5C588.7 396.8 593.7 398.7 597.5 400.6ZM469 642.5V714H437H405V642.5V571H437H469V642.5ZM485 642.5V714H480.5H476V642.5V571H480.5H485V642.5Z" fill="#F4F4F4"/>
</svg>
