<svg width="121" height="111" viewBox="0 0 121 111" fill="none" xmlns="http://www.w3.org/2000/svg">
<path d="M11.8553 2.66766C6.90485 8.60166 3.70836 14.0767 1.72489 20.0435C0.708569 23.076 0.315154 25.289 0.200408 28.4527C0.0037003 33.9277 0.987238 38.993 3.08545 43.4025C4.75746 46.894 6.1672 48.6316 12.4454 55.0082C18.4614 61.1061 20.5924 63.8109 22.6578 67.9581C25.1331 72.925 25.8216 76.1707 25.674 82.0555C25.5593 86.6945 25.0511 89.4156 23.4775 93.5956C21.7071 98.333 19.5105 101.89 15.3305 106.742C13.1503 109.25 13.052 109.414 13.1831 109.84C13.3634 110.398 13.9371 110.496 16.7566 110.496L19.4122 110.48L21.3301 107.906C27.7886 99.1854 30.5753 92.2843 31.1327 83.5472C31.5425 77.105 30.4442 71.5808 27.7067 66.1878C24.8872 60.6144 21.117 55.5983 17.1009 52.1232C10.7734 46.599 7.05238 40.8453 5.88853 34.7801C4.79025 29.0101 5.85575 22.781 9.01946 16.4208C11.0193 12.3883 13.0192 9.51963 17.2648 4.51998C18.5106 3.06107 19.4941 1.74969 19.4941 1.56937C19.4941 0.716974 18.8057 0.520266 15.8059 0.503874H13.6585L11.8553 2.66766Z" fill="white"/>
<path d="M41.5252 2.66766C36.5748 8.60166 33.3783 14.0767 31.3948 20.0435C30.3621 23.1088 29.9687 25.3054 29.8703 28.4691C29.6736 33.9441 30.6572 38.993 32.7554 43.4025C34.4274 46.8776 35.8207 48.6152 42.1154 55.0082C48.3444 61.352 50.2623 63.7945 52.4425 68.2368C53.6719 70.7284 54.5571 73.2692 55.0161 75.4986C55.4423 77.5968 55.4259 84.6127 54.9997 86.8912C54.5735 89.2353 54.1309 90.8581 53.3113 93.1203C51.4754 98.2183 49.0821 102.07 44.4431 107.382C42.8858 109.168 42.7219 109.414 42.853 109.84C43.0333 110.398 43.6071 110.496 46.4265 110.496L49.0821 110.48L50.9836 107.906C53.7539 104.169 55.0653 102.087 56.6225 98.9395C59.5404 93.0383 60.819 87.6944 60.8354 81.3178C60.8518 75.3674 59.8354 71.0071 57.3274 66.1058C54.4424 60.4668 50.7869 55.5983 46.7708 52.1232C40.3122 46.4842 36.6731 40.7961 35.4601 34.3539C35.0667 32.3213 35.0667 28.5347 35.4601 26.1578C36.1978 21.6335 37.9353 17.2076 40.6728 12.7981C42.3776 10.077 43.8857 8.10989 47.574 3.74955C50.0001 0.864504 49.787 0.520266 45.4758 0.503874H43.3284L41.5252 2.66766Z" fill="white"/>
<path d="M71.1788 2.66777C65.9989 8.89683 62.4909 15.0767 60.655 21.2894C59.9173 23.7974 59.6386 25.535 59.5403 28.4692C59.3436 33.8623 60.3271 38.9439 62.3598 43.2387C64.0482 46.8122 65.4415 48.5498 71.5886 54.8116C77.8505 61.1882 79.9323 63.811 81.9977 67.9582C84.309 72.6136 85.0631 75.8429 85.0631 81.1048C85.0631 85.5308 84.4566 89.0223 83.014 93.0548C81.1453 98.2184 79.1455 101.48 74.3261 107.136C72.3591 109.431 72.3591 109.447 72.5722 109.939C72.818 110.447 73.3426 110.529 76.2932 110.463L78.752 110.414L80.1946 108.529C86.2269 100.661 89.3906 93.481 90.3086 85.5799C90.5873 83.2358 90.5545 78.5968 90.243 76.3511C89.7021 72.4661 88.7677 69.5319 86.9318 65.9748C84.0795 60.4178 80.7355 55.9919 76.4899 52.1561C71.7853 47.9269 69.179 44.6976 67.1955 40.6487C64.5727 35.3048 64.1137 29.2888 65.8185 22.9614C67.4578 16.8963 70.5559 11.5852 76.5883 4.52009C77.8341 3.06118 78.834 1.7498 78.834 1.56948C78.834 0.717085 78.1455 0.520377 75.1457 0.503985H72.9984L71.1788 2.66777Z" fill="white"/>
<path d="M101.505 1.88094C95.8166 8.50342 92.0464 15.1751 90.1449 21.9123C88.2926 28.502 89.0794 37.0588 92.0956 43.4026C93.784 46.9269 95.0134 48.4514 101.21 54.7624C107.734 61.4013 109.701 63.9093 111.848 68.3844C113.996 72.8431 114.553 75.1217 114.684 80.0066C114.815 85.1373 114.291 88.5633 112.684 93.0712C110.816 98.2184 108.816 101.48 103.996 107.136C102.029 109.431 102.029 109.447 102.242 109.939C102.488 110.447 103.013 110.529 105.963 110.463L108.422 110.414L109.865 108.529C116.979 99.2511 120.143 90.9238 120.176 81.3999C120.192 75.6298 119.274 71.4498 117.012 66.778C114.242 61.1063 110.537 56.1066 106.144 52.1397C99.4065 46.0745 96.1117 40.9929 94.8659 34.7311C94.3577 32.1739 94.3577 28.4364 94.8659 25.7153C96.2264 18.4535 99.341 12.6507 106.275 4.5037C107.504 3.06118 108.504 1.7498 108.504 1.56948C108.504 0.717085 107.816 0.520377 104.816 0.503985H102.685L101.505 1.88094Z" fill="white"/>
</svg>
