<svg width="123" height="111" viewBox="0 0 123 111" fill="none" xmlns="http://www.w3.org/2000/svg">
<path d="M77.6292 2.64535C83.0805 0.920738 90.594 0.40521 96.2865 1.32444L96.2875 1.3246C103.626 2.52999 112.284 6.28232 119.533 11.3711L119.533 11.3714L121.715 12.9073L121.874 13.0193L121.874 13.214L121.874 15.5178C121.874 16.3934 121.853 16.9823 121.789 17.3341C121.772 17.425 121.751 17.5121 121.721 17.5903C121.693 17.665 121.648 17.7564 121.571 17.8327C121.483 17.9189 121.363 17.9762 121.224 17.974C121.107 17.9722 121.012 17.929 120.948 17.8902C120.808 17.8125 120.421 17.5519 119.934 17.2169C119.422 16.8638 118.769 16.4079 118.102 15.9383L118.098 15.9358C110.945 10.7797 104.929 7.84759 98.4126 6.29743L98.412 6.29729C92.0561 4.77411 86.2134 4.78468 80.7088 6.36068C75.2029 7.93703 70.0119 11.0862 64.9703 15.8747C60.6833 19.9561 54.6674 23.5347 47.6643 26.2211L47.6637 26.2213C42.9091 28.0352 37.1292 28.8356 30.9085 28.578L30.908 28.5779C21.565 28.1767 13.0785 25.4239 4.54374 20.0738C4.54357 20.0737 4.5434 20.0736 4.54323 20.0735L1.30175 18.0547L1.125 17.9446L1.125 17.7364L1.125 15.2903C1.125 14.3453 1.14656 13.7191 1.21461 13.3518C1.23221 13.2568 1.25524 13.1653 1.28782 13.0837C1.31901 13.0055 1.36974 12.9085 1.45855 12.8314C1.56006 12.7431 1.68931 12.7004 1.82427 12.7128C1.94202 12.7236 2.03668 12.7737 2.09985 12.8152L2.10766 12.8204L2.11521 12.8259C9.76084 18.4137 13.2075 20.2663 19.6388 22.2127L19.6415 22.2135C24.0871 23.595 28.4432 24.2161 33.3786 24.2161C37.8297 24.2161 41.2437 23.7087 44.8971 22.5L44.898 22.4997C51.0807 20.4714 55.5239 17.7996 62.3792 12.0455C65.9561 9.02958 68.4212 7.10107 70.6664 5.71653C72.9198 4.32694 74.9427 3.49069 77.6292 2.64535ZM77.6292 2.64535C77.6293 2.64533 77.6294 2.64532 77.6294 2.6453L77.742 3.00301L77.6288 2.64548C77.629 2.64543 77.6291 2.64539 77.6292 2.64535Z" fill="white" stroke="white" stroke-width="0.749999"/>
<path d="M119.537 38.6636L119.537 38.6639L121.719 40.2425L121.874 40.3547L121.874 40.5463L121.874 42.9141C121.874 43.8144 121.853 44.4178 121.789 44.7772C121.773 44.87 121.752 44.9584 121.723 45.0373C121.695 45.1126 121.651 45.2049 121.574 45.2823C121.488 45.37 121.366 45.4304 121.224 45.4281C121.104 45.4262 121.008 45.381 120.944 45.3411C120.804 45.2611 120.417 44.9932 119.93 44.649C119.418 44.2862 118.765 43.8176 118.098 43.3349L118.094 43.3324C110.941 38.0329 104.925 35.0199 98.4103 33.427L98.4097 33.4268C92.0551 31.8616 86.2144 31.8726 80.7114 33.4919C75.207 35.1116 70.0162 38.3478 64.974 43.2699C60.6874 47.4642 54.6714 51.1424 47.6676 53.9038L47.6669 53.904C42.9112 55.7687 37.1299 56.5914 30.9081 56.3266L30.9075 56.3266C21.5624 55.9142 13.0746 53.0841 4.53957 47.5852C4.53948 47.5852 4.53939 47.5851 4.5393 47.5851L1.29783 45.5101L1.125 45.3995L1.125 45.1943L1.125 42.6803C1.125 41.7087 1.14662 41.067 1.21428 40.6917C1.23176 40.5948 1.25451 40.502 1.28654 40.4195C1.31708 40.3408 1.36684 40.2428 1.45473 40.1643C1.55581 40.074 1.68677 40.0286 1.82521 40.0416C1.94519 40.0529 2.04088 40.1053 2.1038 40.1478L2.11162 40.1531L2.11916 40.1588C9.76496 45.902 13.2113 47.8057 19.6416 49.8058L19.6443 49.8067C24.0891 51.2263 28.4442 51.8644 33.3786 51.8644C37.8287 51.8644 41.2417 51.3431 44.8942 50.1012L44.8951 50.1009C51.0767 48.0166 55.5197 45.2708 62.3753 39.3567C65.9521 36.257 68.4172 34.275 70.6625 32.8519C72.916 31.4237 74.9392 30.564 77.626 29.6951C83.0785 27.922 90.5939 27.392 96.2881 28.3371L96.2891 28.3372C103.629 29.5764 112.288 33.4335 119.537 38.6636Z" fill="white" stroke="white" stroke-width="0.749999"/>
<path d="M77.6292 57.3958C83.0805 55.6712 90.594 55.1557 96.2865 56.0749L96.2875 56.0751C103.626 57.2805 112.284 61.0328 119.533 66.1216L119.533 66.1219L121.715 67.6578L121.874 67.7698L121.874 67.9644L121.874 70.2683C121.874 71.1439 121.853 71.7328 121.789 72.0845C121.772 72.1755 121.751 72.2626 121.721 72.3408C121.693 72.4155 121.648 72.5069 121.571 72.5832C121.483 72.6694 121.363 72.7266 121.224 72.7245C121.107 72.7227 121.012 72.6795 120.948 72.6407C120.808 72.563 120.421 72.3023 119.934 71.9673C119.422 71.6143 118.769 71.1584 118.102 70.6887L118.098 70.6863C110.945 65.5302 104.929 62.5981 98.4126 61.0479L98.412 61.0478C92.0561 59.5246 86.2134 59.5352 80.7088 61.1112C75.2029 62.6875 70.0119 65.8367 64.9703 70.6252C60.6833 74.7065 54.6674 78.2852 47.6643 80.9716L47.6637 80.9718C42.9091 82.7857 37.1292 83.586 30.9085 83.3285L30.908 83.3284C21.565 82.9272 13.0785 80.1743 4.54374 74.8243C4.54357 74.8242 4.5434 74.8241 4.54323 74.824L1.30175 72.8051L1.125 72.6951L1.125 72.4868L1.125 70.0408C1.125 69.0958 1.14656 68.4696 1.21461 68.1023C1.23221 68.0073 1.25524 67.9158 1.28782 67.8342C1.31901 67.756 1.36974 67.659 1.45855 67.5818C1.56006 67.4936 1.68931 67.4509 1.82427 67.4632C1.94202 67.474 2.03668 67.5242 2.09985 67.5657L2.10766 67.5708L2.11521 67.5764C9.76084 73.1642 13.2075 75.0168 19.6388 76.9632L19.6415 76.964C24.0871 78.3455 28.4432 78.9665 33.3786 78.9665C37.8297 78.9665 41.2437 78.4592 44.8971 77.2505L44.898 77.2502C51.0807 75.2219 55.5239 72.5501 62.3792 66.796C65.9561 63.7801 68.4212 61.8516 70.6664 60.467C72.9198 59.0774 74.9427 58.2412 77.6292 57.3958ZM77.6292 57.3958C77.6293 57.3958 77.6294 57.3958 77.6294 57.3958L77.742 57.7535L77.6288 57.396C77.629 57.3959 77.6291 57.3959 77.6292 57.3958Z" fill="white" stroke="white" stroke-width="0.749999"/>
<path d="M77.6292 84.3949C83.0805 82.6703 90.594 82.1547 96.2865 83.0739L96.2875 83.0741C103.626 84.2795 112.284 88.0318 119.533 93.1206L119.533 93.1209L121.715 94.6568L121.874 94.7689L121.874 94.9635L121.874 97.2673C121.874 98.143 121.853 98.7318 121.789 99.0836C121.772 99.1745 121.751 99.2616 121.721 99.3398C121.693 99.4145 121.648 99.5059 121.571 99.5822C121.483 99.6685 121.363 99.7257 121.224 99.7235C121.107 99.7217 121.012 99.6785 120.948 99.6397C120.808 99.562 120.421 99.3014 119.934 98.9664C119.422 98.6133 118.769 98.1574 118.102 97.6878L118.098 97.6853C110.945 92.5292 104.929 89.5971 98.4126 88.0469L98.412 88.0468C92.0561 86.5236 86.2134 86.5342 80.7088 88.1102C75.2029 89.6865 70.0119 92.8357 64.9703 97.6243C60.6833 101.706 54.6674 105.284 47.6643 107.971L47.6637 107.971C42.9091 109.785 37.1292 110.585 30.9085 110.327L30.908 110.327C21.565 109.926 13.0785 107.173 4.54374 101.823C4.54357 101.823 4.5434 101.823 4.54323 101.823L1.30175 99.8042L1.125 99.6941L1.125 99.4859L1.125 97.0398C1.125 96.0948 1.14656 95.4686 1.21461 95.1014C1.23221 95.0063 1.25524 94.9148 1.28782 94.8332C1.31901 94.755 1.36974 94.6581 1.45855 94.5809C1.56006 94.4927 1.68931 94.4499 1.82427 94.4623C1.94202 94.4731 2.03668 94.5232 2.09985 94.5647L2.10766 94.5699L2.11521 94.5754C9.76084 100.163 13.2075 102.016 19.6388 103.962L19.6415 103.963C24.0871 105.345 28.4432 105.966 33.3786 105.966C37.8297 105.966 41.2437 105.458 44.8971 104.25L44.898 104.249C51.0807 102.221 55.5239 99.5491 62.3792 93.795C65.9561 90.7791 68.4212 88.8506 70.6664 87.466C72.9198 86.0764 74.9427 85.2402 77.6292 84.3949ZM77.6292 84.3949C77.6293 84.3948 77.6294 84.3948 77.6294 84.3948L77.742 84.7525L77.6288 84.395C77.629 84.3949 77.6291 84.3949 77.6292 84.3949Z" fill="white" stroke="white" stroke-width="0.749999"/>
</svg>
