<svg width="121" height="110" viewBox="0 0 121 110" fill="none" xmlns="http://www.w3.org/2000/svg">
<path fill-rule="evenodd" clip-rule="evenodd" d="M32.3826 58.079C32.0985 57.805 31.6486 57.805 31.3645 58.079L5.73689 82.7967C5.15395 83.3589 4.11645 83.4802 3.41957 83.0675L0.597414 81.3963C-0.0994633 80.9836 -0.191827 80.1932 0.391116 79.631L29.7135 51.3497C30.1752 50.9044 30.9221 50.7357 31.559 50.8899C31.7636 50.9394 31.9802 50.9392 32.1847 50.8894C32.8222 50.7343 33.5704 50.9028 34.0327 51.3487L59.5789 75.9889C59.8629 76.2629 60.3129 76.2629 60.5969 75.9889L86.1432 51.3497C86.5949 50.914 87.3196 50.7432 87.9472 50.8803C88.1275 50.9197 88.3161 50.9196 88.4964 50.8799C89.1247 50.7416 89.8508 50.9124 90.3032 51.3487L119.625 79.6305C120.208 80.1927 120.115 80.983 119.418 81.3957L116.596 83.0669C115.899 83.4796 114.862 83.3583 114.279 82.796L88.7327 58.1557C88.4486 57.8818 87.9987 57.8818 87.7146 58.1557L62.1666 82.7967C61.7145 83.2327 60.9889 83.4035 60.3609 83.2657C60.1809 83.2262 59.9926 83.2261 59.8125 83.2654C59.1849 83.4026 58.4602 83.2318 58.0084 82.796L32.3826 58.079Z" fill="white"/>
<path fill-rule="evenodd" clip-rule="evenodd" d="M32.3826 83.7699C32.0985 83.4959 31.6486 83.4959 31.3645 83.7699L5.73689 108.488C5.15395 109.05 4.11645 109.171 3.41957 108.758L0.597414 107.087C-0.0994633 106.674 -0.191827 105.884 0.391116 105.322L29.7135 77.0406C30.1752 76.5953 30.9221 76.4267 31.559 76.5808C31.7636 76.6303 31.9802 76.6301 32.1847 76.5804C32.8222 76.4252 33.5704 76.5937 34.0327 77.0396L59.5789 101.68C59.8629 101.954 60.3129 101.954 60.5969 101.68L86.1432 77.0406C86.5949 76.605 87.3196 76.4341 87.9472 76.5712C88.1275 76.6107 88.3161 76.6105 88.4964 76.5708C89.1247 76.4326 89.8508 76.6033 90.3032 77.0396L119.625 105.321C120.208 105.884 120.115 106.674 119.418 107.087L116.596 108.758C115.899 109.17 114.862 109.049 114.279 108.487L88.7327 83.8467C88.4486 83.5727 87.9987 83.5727 87.7146 83.8467L62.1666 108.488C61.7145 108.924 60.9889 109.094 60.3609 108.957C60.1809 108.917 59.9926 108.917 59.8125 108.956C59.1849 109.094 58.4602 108.923 58.0084 108.487L32.3826 83.7699Z" fill="white"/>
<path fill-rule="evenodd" clip-rule="evenodd" d="M32.3826 32.4154C32.0985 32.1414 31.6486 32.1414 31.3645 32.4154L5.73689 57.1331C5.15395 57.6953 4.11645 57.8166 3.41957 57.4039L0.597414 55.7327C-0.0994633 55.32 -0.191827 54.5297 0.391116 53.9674L29.7135 25.6862C30.1752 25.2408 30.9221 25.0722 31.559 25.2263C31.7636 25.2758 31.9802 25.2757 32.1847 25.2259C32.8222 25.0707 33.5704 25.2393 34.0327 25.6852L59.5789 50.3254C59.8629 50.5993 60.3129 50.5993 60.5969 50.3254L86.1432 25.6862C86.5949 25.2505 87.3196 25.0796 87.9472 25.2168C88.1275 25.2562 88.3161 25.256 88.4964 25.2163C89.1247 25.0781 89.8508 25.2488 90.3032 25.6852L119.625 53.9669C120.208 54.5291 120.115 55.3195 119.418 55.7321L116.596 57.4033C115.899 57.816 114.862 57.6947 114.279 57.1325L88.7327 32.4922C88.4486 32.2182 87.9987 32.2182 87.7146 32.4922L62.1666 57.1331C61.7145 57.5692 60.9889 57.74 60.3609 57.6021C60.1809 57.5626 59.9926 57.5625 59.8125 57.6019C59.1849 57.7391 58.4602 57.5682 58.0084 57.1325L32.3826 32.4154Z" fill="white"/>
<path fill-rule="evenodd" clip-rule="evenodd" d="M32.3826 7.51258C32.0985 7.2386 31.6486 7.2386 31.3645 7.51257L5.73689 32.2303C5.15395 32.7925 4.11645 32.9138 3.41957 32.5011L0.597414 30.8298C-0.0994633 30.4172 -0.191827 29.6268 0.391116 29.0646L29.7135 0.78332C30.1752 0.338002 30.9221 0.169329 31.559 0.323477C31.7636 0.372994 31.9802 0.372824 32.1847 0.323039C32.8222 0.167873 33.5704 0.33642 34.0327 0.782321L59.5789 25.4225C59.8629 25.6965 60.3129 25.6965 60.5969 25.4225L86.1432 0.78332C86.5949 0.347638 87.3196 0.176758 87.9472 0.313923C88.1275 0.353339 88.3161 0.353179 88.4964 0.313499C89.1247 0.175232 89.8508 0.345986 90.3032 0.782321L119.625 29.0641C120.208 29.6263 120.115 30.4166 119.418 30.8293L116.596 32.5005C115.899 32.9132 114.862 32.7919 114.279 32.2296L88.7327 7.58934C88.4486 7.31537 87.9987 7.31536 87.7146 7.58933L62.1666 32.2303C61.7145 32.6663 60.9889 32.8371 60.3609 32.6993C60.1809 32.6598 59.9926 32.6597 59.8125 32.699C59.1849 32.8362 58.4602 32.6654 58.0084 32.2296L32.3826 7.51258Z" fill="white"/>
</svg>
